<svg width="320" height="46" viewBox="0 0 320 46" fill="none" xmlns="http://www.w3.org/2000/svg">
<g clip-path="url(#clip0_212_1290)">
<path d="M104.478 9.20044H76.9945V15.3041H87.6889V36.8037H93.7839V15.3041H104.478V9.20044Z" fill="black"/>
<path d="M116.492 9.10464H110.213V15.2137V36.7321H116.492V9.10464Z" fill="black"/>
<path d="M27.4838 18.3566H45.7005V27.6716H27.4838V45.9827H18.2168V27.6716H0V18.3566H18.2168V0.0455493H27.4838V18.3566ZM54.9449 0V45.9827H64.2119V0H54.9449Z" fill="#00AAE6"/>
</g>
<path d="M143.355 37V13.2109H134.859V8.36719H157.613V13.2109H149.137V37H143.355ZM171.344 30.3984L176.812 31.3164C176.109 33.3216 174.996 34.8516 173.473 35.9062C171.962 36.9479 170.068 37.4688 167.789 37.4688C164.182 37.4688 161.513 36.2904 159.781 33.9336C158.414 32.0456 157.73 29.6628 157.73 26.7852C157.73 23.3477 158.629 20.6589 160.426 18.7188C162.223 16.7656 164.495 15.7891 167.242 15.7891C170.328 15.7891 172.763 16.8112 174.547 18.8555C176.331 20.8867 177.184 24.0052 177.105 28.2109H163.355C163.395 29.8385 163.837 31.1081 164.684 32.0195C165.53 32.918 166.585 33.3672 167.848 33.3672C168.707 33.3672 169.43 33.1328 170.016 32.6641C170.602 32.1953 171.044 31.4401 171.344 30.3984ZM171.656 24.8516C171.617 23.263 171.207 22.0586 170.426 21.2383C169.645 20.4049 168.694 19.9883 167.574 19.9883C166.376 19.9883 165.387 20.4245 164.605 21.2969C163.824 22.1693 163.44 23.3542 163.453 24.8516H171.656ZM178.414 37L185.895 26.3164L178.727 16.2578H185.426L189.098 21.9609L192.965 16.2578H199.41L192.379 26.082L200.055 37H193.316L189.098 30.5742L184.84 37H178.414ZM203.16 16.2578H208.277V19.3047C208.941 18.263 209.84 17.4167 210.973 16.7656C212.105 16.1146 213.362 15.7891 214.742 15.7891C217.151 15.7891 219.195 16.7331 220.875 18.6211C222.555 20.5091 223.395 23.1393 223.395 26.5117C223.395 29.9753 222.548 32.6706 220.855 34.5977C219.163 36.5117 217.112 37.4688 214.703 37.4688C213.557 37.4688 212.516 37.2409 211.578 36.7852C210.654 36.3294 209.677 35.5482 208.648 34.4414V44.8906H203.16V16.2578ZM208.59 26.2773C208.59 28.6081 209.052 30.3333 209.977 31.4531C210.901 32.5599 212.027 33.1133 213.355 33.1133C214.632 33.1133 215.693 32.6055 216.539 31.5898C217.385 30.5612 217.809 28.8815 217.809 26.5508C217.809 24.3763 217.372 22.7617 216.5 21.707C215.628 20.6523 214.547 20.125 213.258 20.125C211.917 20.125 210.803 20.6458 209.918 21.6875C209.033 22.7161 208.59 24.2461 208.59 26.2773ZM231.871 22.5859L226.891 21.6875C227.451 19.6823 228.414 18.1979 229.781 17.2344C231.148 16.2708 233.18 15.7891 235.875 15.7891C238.323 15.7891 240.146 16.082 241.344 16.668C242.542 17.2409 243.382 17.9766 243.863 18.875C244.358 19.7604 244.605 21.3945 244.605 23.7773L244.547 30.1836C244.547 32.0065 244.632 33.3542 244.801 34.2266C244.983 35.0859 245.315 36.0104 245.797 37H240.367C240.224 36.6354 240.048 36.0951 239.84 35.3789C239.749 35.0534 239.684 34.8385 239.645 34.7344C238.707 35.6458 237.704 36.3294 236.637 36.7852C235.569 37.2409 234.43 37.4688 233.219 37.4688C231.083 37.4688 229.397 36.8893 228.16 35.7305C226.936 34.5716 226.324 33.1068 226.324 31.3359C226.324 30.1641 226.604 29.1224 227.164 28.2109C227.724 27.2865 228.505 26.5833 229.508 26.1016C230.523 25.6068 231.982 25.1771 233.883 24.8125C236.448 24.3307 238.225 23.8815 239.215 23.4648V22.918C239.215 21.8633 238.954 21.1146 238.434 20.6719C237.913 20.2161 236.93 19.9883 235.484 19.9883C234.508 19.9883 233.746 20.1836 233.199 20.5742C232.652 20.9518 232.21 21.6224 231.871 22.5859ZM239.215 27.0391C238.512 27.2734 237.398 27.5534 235.875 27.8789C234.352 28.2044 233.355 28.5234 232.887 28.8359C232.171 29.3438 231.812 29.9883 231.812 30.7695C231.812 31.5378 232.099 32.2018 232.672 32.7617C233.245 33.3216 233.974 33.6016 234.859 33.6016C235.849 33.6016 236.793 33.276 237.691 32.625C238.355 32.1302 238.792 31.5247 239 30.8086C239.143 30.3398 239.215 29.4479 239.215 28.1328V27.0391ZM267.184 37H251.48V42.4688H247.027V32.5078H249.273C250.211 31.4661 250.986 29.8385 251.598 27.625C252.21 25.4115 252.574 21.6224 252.691 16.2578H269.43V32.5078H271.656V42.4688H267.184V37ZM264 32.5078L264.02 20.7695H257.379C257.158 26.4987 256.246 30.4115 254.645 32.5078H264ZM279.527 22.5859L274.547 21.6875C275.107 19.6823 276.07 18.1979 277.438 17.2344C278.805 16.2708 280.836 15.7891 283.531 15.7891C285.979 15.7891 287.802 16.082 289 16.668C290.198 17.2409 291.038 17.9766 291.52 18.875C292.014 19.7604 292.262 21.3945 292.262 23.7773L292.203 30.1836C292.203 32.0065 292.288 33.3542 292.457 34.2266C292.639 35.0859 292.971 36.0104 293.453 37H288.023C287.88 36.6354 287.704 36.0951 287.496 35.3789C287.405 35.0534 287.34 34.8385 287.301 34.7344C286.363 35.6458 285.361 36.3294 284.293 36.7852C283.225 37.2409 282.086 37.4688 280.875 37.4688C278.74 37.4688 277.053 36.8893 275.816 35.7305C274.592 34.5716 273.98 33.1068 273.98 31.3359C273.98 30.1641 274.26 29.1224 274.82 28.2109C275.38 27.2865 276.161 26.5833 277.164 26.1016C278.18 25.6068 279.638 25.1771 281.539 24.8125C284.104 24.3307 285.882 23.8815 286.871 23.4648V22.918C286.871 21.8633 286.611 21.1146 286.09 20.6719C285.569 20.2161 284.586 19.9883 283.141 19.9883C282.164 19.9883 281.402 20.1836 280.855 20.5742C280.309 20.9518 279.866 21.6224 279.527 22.5859ZM286.871 27.0391C286.168 27.2734 285.055 27.5534 283.531 27.8789C282.008 28.2044 281.012 28.5234 280.543 28.8359C279.827 29.3438 279.469 29.9883 279.469 30.7695C279.469 31.5378 279.755 32.2018 280.328 32.7617C280.901 33.3216 281.63 33.6016 282.516 33.6016C283.505 33.6016 284.449 33.276 285.348 32.625C286.012 32.1302 286.448 31.5247 286.656 30.8086C286.799 30.3398 286.871 29.4479 286.871 28.1328V27.0391ZM297.535 16.2578H302.652V19.3047C303.316 18.263 304.215 17.4167 305.348 16.7656C306.48 16.1146 307.737 15.7891 309.117 15.7891C311.526 15.7891 313.57 16.7331 315.25 18.6211C316.93 20.5091 317.77 23.1393 317.77 26.5117C317.77 29.9753 316.923 32.6706 315.23 34.5977C313.538 36.5117 311.487 37.4688 309.078 37.4688C307.932 37.4688 306.891 37.2409 305.953 36.7852C305.029 36.3294 304.052 35.5482 303.023 34.4414V44.8906H297.535V16.2578ZM302.965 26.2773C302.965 28.6081 303.427 30.3333 304.352 31.4531C305.276 32.5599 306.402 33.1133 307.73 33.1133C309.007 33.1133 310.068 32.6055 310.914 31.5898C311.76 30.5612 312.184 28.8815 312.184 26.5508C312.184 24.3763 311.747 22.7617 310.875 21.707C310.003 20.6523 308.922 20.125 307.633 20.125C306.292 20.125 305.178 20.6458 304.293 21.6875C303.408 22.7161 302.965 24.2461 302.965 26.2773Z" fill="black"/>
<defs>
<clipPath id="clip0_212_1290">
<rect width="117" height="46" fill="white"/>
</clipPath>
</defs>
</svg>
