<svg
  width="16"
  height="16"
  viewBox="0 0 33 33"
  fill="none"
  xmlns="http://www.w3.org/2000/svg"
>
  <path
    d="M0.690391 0.690391C1.61091 -0.23013 3.10337 -0.23013 4.02389 0.690391L16.5 13.1665L28.9761 0.690391C29.8966 -0.23013 31.3891 -0.23013 32.3096 0.690391C33.2301 1.61091 33.2301 3.10337 32.3096 4.02389L19.8335 16.5L32.3096 28.9761C33.2301 29.8966 33.2301 31.3891 32.3096 32.3096C31.3891 33.2301 29.8966 33.2301 28.9761 32.3096L16.5 19.8335L4.02389 32.3096C3.10337 33.2301 1.61091 33.2301 0.690391 32.3096C-0.23013 31.3891 -0.23013 29.8966 0.690391 28.9761L13.1665 16.5L0.690391 4.02389C-0.23013 3.10337 -0.23013 1.61091 0.690391 0.690391Z"
    fill="#FF5B69"
  />
</svg>